<svg width="970" height="367" viewBox="0 0 970 367" fill="none" xmlns="http://www.w3.org/2000/svg">
<path d="M152.625 226.025C150.31 226.025 148.171 225.464 146.207 224.342C144.314 223.22 142.806 221.712 141.683 219.818C140.561 217.854 140 215.715 140 213.4L140 196.985L148.522 201.947V213.4C148.522 214.522 148.908 215.504 149.679 216.346C150.521 217.117 151.503 217.503 152.625 217.503H203.125C204.247 217.503 205.194 217.117 205.965 216.346C206.807 215.504 207.228 214.522 207.228 213.4V196.462C207.228 195.339 206.807 194.393 205.965 193.621C205.194 192.85 204.247 192.464 203.125 192.464H152.625C150.31 192.464 148.171 191.903 146.207 190.78C144.314 189.588 142.806 188.045 141.683 186.151C140.561 184.258 140 182.153 140 179.839V162.9C140 160.586 140.561 158.482 141.683 156.588C142.806 154.624 144.314 153.081 146.207 151.959C148.171 150.836 150.31 150.275 152.625 150.275H203.125C205.439 150.275 207.543 150.836 209.437 151.959C211.401 153.081 212.944 154.624 214.066 156.588C215.189 158.482 215.75 160.586 215.75 162.9V179.318L207.24 174.406L207.228 162.9C207.228 161.778 206.807 160.831 205.965 160.06C205.194 159.218 204.247 158.797 203.125 158.797H152.625C151.503 158.797 150.521 159.218 149.679 160.06C148.908 160.831 148.522 161.778 148.522 162.9V179.839C148.522 180.961 148.908 181.908 149.679 182.679C150.521 183.451 151.503 183.837 152.625 183.837H203.125C205.439 183.837 207.543 184.433 209.437 185.625C211.401 186.747 212.944 188.255 214.066 190.149C215.189 192.043 215.75 194.147 215.75 196.462V213.4C215.75 215.715 215.189 217.854 214.066 219.818C212.944 221.712 211.401 223.22 209.437 224.342C207.543 225.464 205.439 226.025 203.125 226.025H152.625Z" fill="#07070F"/>
<path d="M235.731 226.025V161.711L244.824 167.031V226.025H235.731ZM235.731 149.735V140.643H244.824V149.735H235.731Z" fill="#07070F"/>
<path d="M278.223 226.025C275.783 226.025 273.529 225.433 271.459 224.251C269.463 222.994 267.837 221.367 266.58 219.372C265.397 217.302 264.806 215.047 264.806 212.608V140.643L273.898 145.889V212.608C273.898 213.79 274.305 214.825 275.118 215.712C276.005 216.525 277.04 216.932 278.223 216.932H289.09V226.025H278.223Z" fill="#07070F"/>
<path d="M309.071 226.025V140.643L318.164 145.889V161.711H361.188C363.627 161.711 365.845 162.339 367.841 163.596C369.911 164.779 371.537 166.405 372.72 168.475C373.976 170.471 374.605 172.689 374.605 175.128V226.025H365.512V175.128C365.512 173.945 365.069 172.947 364.182 172.134C363.368 171.247 362.37 170.804 361.188 170.804H322.599C321.417 170.804 320.382 171.247 319.495 172.134C318.607 172.947 318.164 173.945 318.164 175.128V226.025H309.071Z" fill="#07070F"/>
<path d="M408.004 226.025C405.565 226.025 403.31 225.433 401.24 224.251C399.244 222.994 397.618 221.368 396.361 219.372C395.178 217.302 394.587 215.047 394.587 212.608V175.128C394.587 172.689 395.178 170.471 396.361 168.475C397.618 166.405 399.244 164.779 401.24 163.596C403.31 162.339 405.565 161.711 408.004 161.711H446.592C449.106 161.711 451.36 162.339 453.356 163.596C455.426 164.779 457.053 166.405 458.235 168.475C459.492 170.471 460.12 172.689 460.12 175.128V212.608C460.12 215.047 459.492 217.302 458.235 219.372C457.053 221.368 455.426 222.994 453.356 224.251C451.36 225.433 449.106 226.025 446.592 226.025H408.004ZM408.004 216.932H446.592C447.775 216.932 448.773 216.526 449.586 215.712C450.473 214.825 450.917 213.79 450.917 212.608V175.128C450.917 173.945 450.473 172.947 449.586 172.134C448.773 171.247 447.775 170.804 446.592 170.804H408.004C406.821 170.804 405.786 171.247 404.899 172.134C404.086 172.947 403.68 173.945 403.68 175.128V212.608C403.68 213.79 404.086 214.825 404.899 215.712C405.786 216.526 406.821 216.932 408.004 216.932Z" fill="#07070F"/>
<path d="M493.52 226.025C491.08 226.025 488.826 225.433 486.756 224.251C484.76 222.994 483.133 221.368 481.877 219.372C480.694 217.302 480.103 215.047 480.103 212.608V161.711L489.195 166.964V212.608C489.195 213.79 489.602 214.825 490.415 215.712C491.302 216.526 492.337 216.932 493.52 216.932H532.108C533.291 216.932 534.326 216.526 535.213 215.712C536.1 214.825 536.543 213.79 536.543 212.608V161.711L545.636 166.967V212.608C545.636 215.047 545.008 217.302 543.751 219.372C542.568 221.368 540.942 222.994 538.872 224.251C536.876 225.433 534.621 226.025 532.108 226.025H493.52Z" fill="#07070F"/>
<path d="M578.985 226.025C576.555 226.025 574.308 225.433 572.246 224.251C570.257 222.994 568.637 221.368 567.385 219.372C566.206 217.302 565.617 215.047 565.617 212.608V175.128C565.617 172.689 566.206 170.471 567.385 168.475C568.637 166.405 570.257 164.779 572.246 163.596C574.308 162.339 576.555 161.711 578.985 161.711H617.432C619.937 161.711 622.183 162.339 624.172 163.596C626.234 164.779 627.854 166.405 629.033 168.475C630.285 170.471 630.911 172.689 630.911 175.128V198.414H574.677V212.608C574.677 213.79 575.082 214.825 575.892 215.712C576.776 216.526 577.807 216.932 578.985 216.932H630.911V226.025H578.985ZM574.677 189.322H621.741V175.128C621.741 173.945 621.299 172.947 620.415 172.134C619.605 171.247 618.611 170.804 617.432 170.804H578.985C577.807 170.804 576.776 171.247 575.892 172.134C575.082 172.947 574.677 173.945 574.677 175.128V189.322Z" fill="#07070F"/>
<path d="M664.31 226.025C661.796 226.025 659.505 225.433 657.435 224.251C655.439 222.994 653.85 221.367 652.667 219.372C651.484 217.302 650.893 215.047 650.893 212.608V140.643L659.985 145.894V161.711H687.818V170.804H659.985V212.608C659.985 213.79 660.392 214.825 661.205 215.712C662.092 216.525 663.127 216.932 664.31 216.932H687.818V226.025H664.31Z" fill="#07070F"/>
<path d="M721.217 226.025C718.704 226.025 716.412 225.433 714.342 224.251C712.346 222.994 710.757 221.367 709.574 219.372C708.391 217.302 707.8 215.047 707.8 212.608V140.643L716.892 145.894V161.711H744.725V170.804H716.892V212.608C716.892 213.79 717.299 214.825 718.112 215.712C718.999 216.525 720.034 216.932 721.217 216.932H744.725V226.025H721.217Z" fill="#07070F"/>
<path d="M778.075 226.025C775.645 226.025 773.398 225.433 771.336 224.251C769.347 222.994 767.727 221.368 766.475 219.372C765.296 217.302 764.707 215.047 764.707 212.608V175.128C764.707 172.689 765.296 170.471 766.475 168.475C767.727 166.405 769.347 164.779 771.336 163.596C773.398 162.339 775.645 161.711 778.075 161.711H816.522C819.026 161.711 821.273 162.339 823.261 163.596C825.324 164.779 826.944 166.405 828.123 168.475C829.375 170.471 830.001 172.689 830.001 175.128V198.414H773.766V212.608C773.766 213.79 774.171 214.825 774.982 215.712C775.866 216.526 776.897 216.932 778.075 216.932H830.001V226.025H778.075ZM773.766 189.322H820.831V175.128C820.831 173.945 820.389 172.947 819.505 172.134C818.695 171.247 817.701 170.804 816.522 170.804H778.075C776.897 170.804 775.866 171.247 774.982 172.134C774.171 172.947 773.766 173.945 773.766 175.128V189.322Z" fill="#07070F"/>
</svg>
